<svg width="217" height="116" viewBox="0 0 217 116" fill="none" xmlns="http://www.w3.org/2000/svg">
<g clip-path="url(#clip0_82_104)">
<path d="M57.1448 8.39424C56.7755 9.22918 56.2921 9.9379 55.6953 10.521C55.0972 11.1054 54.3948 11.5641 53.5867 11.8972C52.7781 12.2316 51.9525 12.3978 51.1089 12.3978V11.7722C52.3388 11.481 53.2971 11.0119 53.982 10.3645C54.6676 9.71825 55.0103 8.72797 55.0103 7.39304C55.0103 7.01744 54.9747 6.67339 54.9047 6.3609C54.8341 6.0484 54.7641 5.78809 54.6941 5.57875C54.3779 5.87122 54.0261 6.06964 53.6399 6.17279C53.2524 6.27716 52.9193 6.32934 52.6381 6.32934C51.9344 6.32934 51.3992 6.0478 51.0298 5.4847C50.6605 4.9216 50.4764 4.32756 50.4764 3.70196C50.4764 2.66011 50.8011 1.86704 51.4517 1.32457C52.1016 0.783315 52.8306 0.511475 53.6399 0.511475C54.8341 0.511475 55.8094 1.01207 56.5661 2.01266C57.3217 3.01386 57.6994 4.20195 57.6994 5.57814C57.6994 6.62121 57.5148 7.5593 57.146 8.39303L57.1448 8.39424Z" fill="white"/>
<path d="M108.822 39.5703C107.451 43.0199 105.589 46.012 103.235 48.5471C100.881 51.0835 98.1389 53.0355 95.0093 54.405C91.8785 55.7746 88.5539 56.459 85.035 56.459C81.5162 56.459 78.2707 55.7873 75.1634 54.4433C72.0549 53.0998 69.3362 51.1982 67.0056 48.7377C64.675 46.2784 62.8344 43.3367 61.4875 39.9132C60.1387 36.4897 59.4652 32.724 59.4652 28.616C59.4652 24.255 60.1731 20.337 61.59 16.8626C63.0058 13.3893 64.9146 10.4476 67.314 8.03806C69.7134 5.62972 72.5238 3.77781 75.7458 2.48475C78.9677 1.19169 82.3611 0.544853 85.9258 0.544853C89.8097 0.544853 93.2948 1.30576 96.3798 2.82698C99.4647 4.34819 102.08 6.39063 104.229 8.95127C106.377 11.5131 108.022 14.467 109.165 17.814C110.307 21.161 110.879 24.661 110.879 28.312C110.879 32.3702 110.193 36.1226 108.822 39.5709V39.5703ZM101.316 19.03C100.607 15.8862 99.5335 13.0331 98.0936 10.4719C96.6544 7.91124 94.8602 5.83118 92.7125 4.23351C90.5641 2.63584 88.0277 1.83731 85.1032 1.83731C82.1788 1.83731 79.5615 2.63584 77.3914 4.23351C75.2201 5.83118 73.4381 7.89789 72.0446 10.4337C70.65 12.97 69.6217 15.848 68.9597 19.0682C68.2965 22.2897 67.9658 25.5475 67.9658 28.8436C67.9658 32.1396 68.3309 35.6141 69.0629 38.8094C69.7931 42.0048 70.8793 44.819 72.3192 47.2535C73.7585 49.6879 75.5635 51.6411 77.7348 53.1114C79.9049 54.5828 82.4305 55.3177 85.3096 55.3177C88.1888 55.3177 90.6908 54.507 92.8163 52.8832C94.9411 51.2607 96.7117 49.1685 98.1292 46.6072C99.545 44.0466 100.608 41.168 101.317 37.9727C102.025 34.7773 102.38 31.5826 102.38 28.3873C102.38 25.1919 102.025 22.175 101.317 19.03H101.316Z" fill="white"/>
<path d="M168.729 43.2044C167.489 45.9209 165.891 48.2498 163.933 50.1933C161.975 52.1369 159.658 53.6575 156.983 54.7533C154.306 55.8486 151.283 56.3977 147.913 56.3977C144.543 56.3977 141.159 55.7121 138.211 54.3419C135.262 52.9718 132.734 51.0786 130.629 48.6606C128.522 46.2438 126.875 43.3536 125.685 39.9896C124.496 36.6256 123.901 32.9515 123.901 28.9637C123.901 25.7247 124.358 22.4231 125.276 19.0591C126.193 15.6951 127.642 12.6436 129.625 9.9021C131.607 7.16185 134.185 4.91978 137.357 3.17466C140.528 1.43076 144.369 0.558197 148.88 0.558197C152.399 0.558197 155.471 1.14435 158.098 2.31484C160.725 3.48655 162.918 4.95679 164.678 6.72497C166.436 8.49436 167.763 10.376 168.655 12.3687C169.547 14.3626 170.018 16.1811 170.068 17.8255H168.581C168.432 15.882 167.862 13.9761 166.871 12.1072C165.879 10.2383 164.529 8.55625 162.819 7.06173C161.11 5.56661 159.077 4.35911 156.724 3.43619C154.369 2.51448 151.755 2.05332 148.88 2.05332C144.518 2.05332 140.838 2.93862 137.84 4.7068C134.841 6.47619 132.425 8.6946 130.592 11.3596C128.758 14.0258 127.432 16.9287 126.615 20.0682C125.797 23.2077 125.388 26.1731 125.388 28.9637C125.388 32.3532 125.882 35.6165 126.875 38.756C127.866 41.8955 129.328 44.6613 131.261 47.0532C133.194 49.4452 135.56 51.3638 138.361 52.8092C141.16 54.2552 144.345 54.9772 147.914 54.9772C151.085 54.9772 153.936 54.4542 156.463 53.4075C158.99 52.3608 161.171 50.916 163.005 49.072C164.838 47.2292 166.325 45.0356 167.466 42.4938C168.605 39.9526 169.373 37.2117 169.77 34.2713H171.257C170.811 37.5115 169.968 40.4884 168.73 43.2038L168.729 43.2044Z" fill="white"/>
<path d="M177.375 1.83002H217V3.32515H197.894V55.2018H196.407V3.32515H177.375V1.83002V1.83002Z" fill="white"/>
<path d="M2.35898 0.559418L40.7285 55.0306H40.886V0.559418H42.4587V57.0069H40.0997L1.72956 2.53572H1.57205V57.0069H0V0.559418H2.35898Z" fill="white"/>
<path d="M108.152 70.8128L125.586 115.513H121.041L115.624 101.615H95.3883L90.0336 115.513H85.5504L103.42 70.8128H108.152H108.152ZM114.193 97.9835L105.6 75.0701L96.696 97.9835H114.193V97.9835Z" fill="white"/>
<path d="M156.219 70.8125C158.045 70.8125 159.778 71.0425 161.418 71.5013C163.057 71.9612 164.49 72.6596 165.714 73.5983C166.938 74.5376 167.914 75.7481 168.64 77.2293C169.366 78.7111 169.73 80.4532 169.73 82.4568C169.73 85.2953 169.003 87.7577 167.551 89.8444C166.097 91.9318 163.94 93.2673 161.076 93.851V93.976C162.528 94.1854 163.732 94.5707 164.687 95.1344C165.642 95.6981 166.42 96.4177 167.022 97.2945C167.623 98.1707 168.059 99.1835 168.33 100.331C168.599 101.48 168.775 102.72 168.859 104.056C168.9 104.807 168.942 105.726 168.983 106.811C169.024 107.897 169.108 108.992 169.232 110.098C169.357 111.204 169.553 112.248 169.823 113.228C170.093 114.209 170.456 114.971 170.913 115.513H166.243C165.994 115.096 165.797 114.585 165.652 113.979C165.506 113.375 165.403 112.749 165.341 112.101C165.279 111.455 165.226 110.818 165.185 110.192C165.143 109.566 165.101 109.024 165.061 108.564C164.977 106.978 164.843 105.402 164.656 103.837C164.469 102.271 164.074 100.874 163.473 99.6422C162.871 98.4116 161.999 97.4201 160.858 96.6683C159.716 95.9171 158.15 95.5834 156.157 95.6665H140.093V115.512H135.859V70.8119H156.219V70.8125ZM155.908 92.0355C157.194 92.0355 158.419 91.8377 159.581 91.4409C160.743 91.0446 161.76 90.4706 162.632 89.7188C163.504 88.9676 164.198 88.0599 164.719 86.9955C165.237 85.9312 165.497 84.7104 165.497 83.333C165.497 80.5782 164.708 78.4089 163.131 76.8222C161.553 75.2366 159.146 74.4436 155.908 74.4436H140.094V92.0355H155.908H155.908Z" fill="white"/>
<path d="M214.435 70.8125V74.4436H198.931V115.513H194.697V74.4436H179.255V70.8125H214.434H214.435Z" fill="white"/>
</g>
<defs>
<clipPath id="clip0_82_104">
<rect width="217" height="115" fill="white" transform="translate(0 0.512085)"/>
</clipPath>
</defs>
</svg>
