<svg width="291" height="314" viewBox="0 0 291 314" fill="none" xmlns="http://www.w3.org/2000/svg">
<path d="M279.354 219.159C271.591 238.532 261.053 255.332 247.734 269.572C234.409 283.818 218.89 294.779 201.175 302.465C183.455 310.157 164.637 314 144.722 314C124.806 314 106.437 310.231 88.8488 302.681C71.2553 295.137 55.8676 284.455 42.6751 270.641C29.4826 256.832 19.0658 240.307 11.4405 221.086C3.81527 201.859 0 180.712 0 157.642C0 133.151 4.00524 111.151 12.0263 91.6351C20.042 72.1299 30.844 55.6096 44.4218 42.0797C57.9995 28.555 73.9096 18.1575 92.1469 10.8924C110.384 3.63255 129.587 0 149.766 0C171.75 0 191.476 4.26957 208.937 12.814C226.399 21.3584 241.201 32.8246 253.364 47.2074C265.517 61.5902 274.831 78.1789 281.301 96.9786C287.765 115.778 291 135.426 291 155.937C291 178.727 287.121 199.801 279.359 219.164L279.354 219.159ZM236.869 103.812C232.853 86.1547 226.779 70.1346 218.631 55.7518C210.484 41.3743 200.331 29.6922 188.172 20.7213C176.009 11.7505 161.656 7.26511 145.107 7.26511C128.558 7.26511 113.74 11.7505 101.456 20.7213C89.1654 29.6922 79.0811 41.3005 71.192 55.5412C63.2976 69.7871 57.4771 85.9494 53.7304 104.028C49.9784 122.117 48.1051 140.417 48.1051 158.927C48.1051 177.437 50.1737 196.948 54.3109 214.894C58.448 232.836 64.5904 248.646 72.7381 262.318C80.8858 275.99 91.1021 286.956 103.387 295.211C115.672 303.476 129.962 307.598 146.263 307.598C162.563 307.598 176.721 303.044 188.748 293.926C200.774 284.813 210.795 273.068 218.816 258.68C226.832 244.302 232.842 228.135 236.858 210.193C240.863 192.252 242.874 174.305 242.874 156.363C242.874 138.421 240.869 121.48 236.858 103.817L236.869 103.812Z" fill="#FC8C1E" fill-opacity="0.05"/>
</svg>
