{
"accessors": [
{
"bufferView": 2,
"componentType": 5126,
"count": 3428,
"max": [
72.838134765625,
143.69198608398438,
258.82000732421875
],
"min": [
-72.838134765625,
-395.850830078125,
-1.2295242547988892
],
"type": "VEC3"
},
{
"bufferView": 2,
"byteOffset": 41136,
"componentType": 5126,
"count": 3428,
"max": [
0.99943608045578,
0.9960423707962036,
0.9999592304229736
],
"min": [
-0.99943608045578,
-0.9999953508377075,
-0.999516487121582
],
"type": "VEC3"
},
{
"bufferView": 3,
"componentType": 5126,
"count": 3428,
"max": [
0.9997742772102356,
0.9998520016670227,
0.9731624126434326,
1
],
"min": [
-0.9997743368148804,
-0.9999580383300781,
-0.9999953508377075,
-1
],
"type": "VEC4"
},
{
"bufferView": 3,
"byteOffset": 54848,
"componentType": 5126,
"count": 3428,
"max": [
1,
1,
1,
1
],
"min": [
1,
1,
1,
1
],
"type": "VEC4"
},
{
"bufferView": 1,
"componentType": 5126,
"count": 3428,
"max": [
0.98388671875,
0.9978463053703308
],
"min": [
0.0035965079441666603,
0.00564928213134408
],
"type": "VEC2"
},
{
"bufferView": 1,
"byteOffset": 27424,
"componentType": 5126,
"count": 3428,
"max": [
0.98388671875,
0.9978463053703308
],
"min": [
0.0035965079441666603,
0.00564928213134408
],
"type": "VEC2"
},
{
"bufferView": 1,
"byteOffset": 54848,
"componentType": 5126,
"count": 3428,
"max": [
0.98388671875,
0.9978463053703308
],
"min": [
0.0035965079441666603,
0.00564928213134408
],
"type": "VEC2"
},
{
"bufferView": 0,
"componentType": 5125,
"count": 15606,
"max": [
3427
],
"min": [
0
],
"type": "SCALAR"
},
{
"bufferView": 2,
"byteOffset": 82272,
"componentType": 5126,
"count": 3874,
"max": [
3.8580482006073,
29.50485610961914,
26.9078311920166
],
"min": [
-3.8580431938171387,
17.73493766784668,
10.970193862915039
],
"type": "VEC3"
},
{
"bufferView": 2,
"byteOffset": 128760,
"componentType": 5126,
"count": 3874,
"max": [
0.9999775290489197,
0.9993618130683899,
0.9954013824462891
],
"min": [
-0.9999775290489197,
-0.9999927878379822,
-0.9998893141746521
],
"type": "VEC3"
},
{
"bufferView": 3,
"byteOffset": 109696,
"componentType": 5126,
"count": 3874,
"max": [
0.9998389482498169,
0.9954014420509338,
0.9999292492866516,
1
],
"min": [
-0.9998388886451721,
-0.9998892545700073,
-0.9999945163726807,
-1
],
"type": "VEC4"
},
{
"bufferView": 3,
"byteOffset": 171680,
"componentType": 5126,
"count": 3874,
"max": [
1,
1,
1,
1
],
"min": [
1,
1,
1,
1
],
"type": "VEC4"
},
{
"bufferView": 1,
"byteOffset": 82272,
"componentType": 5126,
"count": 3874,
"max": [
0.9917512536048889,
0.9939002990722656
],
"min": [
0.0076292529702186584,
0.005859375
],
"type": "VEC2"
},
{
"bufferView": 1,
"byteOffset": 113264,
"componentType": 5126,
"count": 3874,
"max": [
0.9917512536048889,
0.9939002990722656
],
"min": [
0.0076292529702186584,
0.005859375
],
"type": "VEC2"
},
{
"bufferView": 1,
"byteOffset": 144256,
"componentType": 5126,
"count": 3874,
"max": [
0.9917512536048889,
0.9939002990722656
],
"min": [
0.0076292529702186584,
0.005859375
],
"type": "VEC2"
},
{
"bufferView": 0,
"byteOffset": 62424,
"componentType": 5125,
"count": 14484,
"max": [
3873
],
"min": [
0
],
"type": "SCALAR"
}
],
"asset": {
"extras": {
"author": "Abner Wu (https://sketchfab.com/dashdu)",
"license": "CC-BY-4.0 (http://creativecommons.org/licenses/by/4.0/)",
"source": "https://sketchfab.com/3d-models/tyrannosaurus-rex-8ca1f4a7ff7041b5b4aa663634934f4c",
"title": "Tyrannosaurus Rex"
},
"generator": "Sketchfab-5.68.0",
"version": "2.0"
},
"bufferViews": [
{
"buffer": 0,
"byteLength": 120360,
"byteOffset": 0,
"name": "floatBufferViews",
"target": 34963
},
{
"buffer": 0,
"byteLength": 175248,
"byteOffset": 120360,
"byteStride": 8,
"name": "floatBufferViews",
"target": 34962
},
{
"buffer": 0,
"byteLength": 175248,
"byteOffset": 295608,
"byteStride": 12,
"name": "floatBufferViews",
"target": 34962
},
{
"buffer": 0,
"byteLength": 233664,
"byteOffset": 470856,
"byteStride": 16,
"name": "floatBufferViews",
"target": 34962
}
],
"buffers": [
{
"byteLength": 704520,
"uri": "scene.bin"
}
],
"images": [
{
"uri": "textures/Material_21_baseColor.png"
},
{
"uri": "textures/Material_21_normal.png"
},
{
"uri": "textures/Material_22_baseColor.png"
},
{
"uri": "textures/Material_22_normal.png"
}
],
"materials": [
{
"doubleSided": true,
"emissiveFactor": [
0,
0,
0
],
"name": "Material_21",
"normalTexture": {
"index": 1,
"scale": 1,
"texCoord": 0
},
"pbrMetallicRoughness": {
"baseColorFactor": [
1,
1,
1,
1
],
"baseColorTexture": {
"index": 0,
"texCoord": 0
},
"metallicFactor": 0,
"roughnessFactor": 0.5008574695
}
},
{
"doubleSided": true,
"emissiveFactor": [
0,
0,
0
],
"name": "Material_22",
"normalTexture": {
"index": 3,
"scale": 1,
"texCoord": 0
},
"pbrMetallicRoughness": {
"baseColorFactor": [
1,
1,
1,
1
],
"baseColorTexture": {
"index": 2,
"texCoord": 0
},
"metallicFactor": 0,
"roughnessFactor": 0.37109375
}
}
],
"meshes": [
{
"name": "polySurface55_Material #21_0",
"primitives": [
{
"attributes": {
"COLOR_0": 3,
"NORMAL": 1,
"POSITION": 0,
"TANGENT": 2,
"TEXCOORD_0": 4,
"TEXCOORD_1": 5,
"TEXCOORD_2": 6
},
"indices": 7,
"material": 0,
"mode": 4
}
]
},
{
"name": "polySurface58_Material #22_0",
"primitives": [
{
"attributes": {
"COLOR_0": 11,
"NORMAL": 9,
"POSITION": 8,
"TANGENT": 10,
"TEXCOORD_0": 12,
"TEXCOORD_1": 13,
"TEXCOORD_2": 14
},
"indices": 15,
"material": 1,
"mode": 4
}
]
}
],
"nodes": [
{
"children": [
1
],
"name": "RootNode (gltf orientation matrix)",
"rotation": [
-0.7071067811865475,
0,
0,
0.7071067811865476
]
},
{
"children": [
2
],
"name": "RootNode (model correction matrix)"
},
{
"children": [
3
],
"matrix": [
1,
0,
0,
0,
0,
0,
1,
0,
0,
-1,
0,
0,
0,
0,
0,
1
],
"name": "trex-finish.FBX"
},
{
"children": [
4,
9
],
"name": "RootNode"
},
{
"children": [
5
],
"matrix": [
-0.10000000149011498,
-1.224647135531628e-17,
1.5099580490056353e-8,
0,
1.5099580490056353e-8,
-6.661338247012613e-17,
0.10000000149011498,
0,
-1.2246460767404281e-17,
0.10000000149011612,
6.661338247012613e-17,
0,
0,
0,
0,
1
],
"name": "CH_trex"
},
{
"children": [
6
],
"matrix": [
1,
0,
4.865559197149578e-33,
0,
-2.3989058954186466e-64,
1,
4.9303806576313227e-32,
0,
-4.865559197149578e-33,
-4.9303806576313227e-32,
1,
0,
0,
0,
0,
1
],
"name": "polySurface49"
},
{
"children": [
7
],
"matrix": [
1,
2.646977960169688e-23,
2.9517462485306193e-32,
0,
-2.646977960169688e-23,
1,
0,
0,
-2.9517462485306193e-32,
-7.813207263874108e-55,
1,
0,
0,
0,
0,
1
],
"name": "polySurface52"
},
{
"children": [
8
],
"matrix": [
1,
0,
2.95174742402497e-32,
0,
0,
1,
0,
0,
-2.95174742402497e-32,
0,
1,
0,
0,
0,
0,
1
],
"name": "polySurface55"
},
{
"mesh": 0,
"name": "polySurface55_Material #21_0"
},
{
"children": [
10
],
"name": "polySurface58"
},
{
"mesh": 1,
"name": "polySurface58_Material #22_0"
}
],
"samplers": [
{
"magFilter": 9729,
"minFilter": 9987,
"wrapS": 10497,
"wrapT": 10497
}
],
"scene": 0,
"scenes": [
{
"name": "OSG_Scene",
"nodes": [
0
]
}
],
"textures": [
{
"sampler": 0,
"source": 0
},
{
"sampler": 0,
"source": 1
},
{
"sampler": 0,
"source": 2
},
{
"sampler": 0,
"source": 3
}
]
}